<svg xmlns="http://www.w3.org/2000/svg" version="1.1" xmlns:xlink="http://www.w3.org/1999/xlink" xmlns:svgjs="http://svgjs.com/svgjs" width="512" height="512" x="0" y="0" viewBox="0 0 512 512" style="enable-background:new 0 0 512 512" xml:space="preserve" class=""><g><path d="M256 .001C114.842.001.001 114.842.001 256S114.842 511.999 256 511.999 511.999 397.159 511.999 256 397.158.001 256 .001zm0 479.998C132.487 479.999 32.001 379.513 32.001 256S132.487 32.001 256 32.001 479.999 132.486 479.999 256c0 123.513-100.486 223.999-223.999 223.999zM398 256c0 8.837-7.164 16-16 16H272v110c0 8.837-7.164 16-16 16s-16-7.163-16-16V272H130c-8.836 0-16-7.163-16-16s7.164-16 16-16h110V130c0-8.837 7.164-16 16-16s16 7.163 16 16v110h110c8.836 0 16 7.164 16 16z" fill="#707070" data-original="#000000" class=""></path></g></svg>